<?xml version="1.0" encoding="UTF-8" standalone="no"?>
<!-- Created with Inkscape (http://www.inkscape.org/) -->

<svg
   xmlns:dc="http://purl.org/dc/elements/1.1/"
   xmlns:cc="http://creativecommons.org/ns#"
   xmlns:rdf="http://www.w3.org/1999/02/22-rdf-syntax-ns#"
   xmlns:svg="http://www.w3.org/2000/svg"
   xmlns="http://www.w3.org/2000/svg"
   xmlns:sodipodi="http://sodipodi.sourceforge.net/DTD/sodipodi-0.dtd"
   xmlns:inkscape="http://www.inkscape.org/namespaces/inkscape"
   width="210mm"
   height="297mm"
   viewBox="0 0 744.09448819 1052.3622047"
   id="svg2"
   version="1.1"
   inkscape:version="0.91 r13725"
   sodipodi:docname="barrel.svg"
   inkscape:export-filename="D:\sync\nsync\ch19\lunar-viz\img\barrel.png"
   inkscape:export-xdpi="21.295889"
   inkscape:export-ydpi="21.295889">
  <defs
     id="defs4" />
  <sodipodi:namedview
     id="base"
     pagecolor="#ffffff"
     bordercolor="#666666"
     borderopacity="1.0"
     inkscape:pageopacity="0.0"
     inkscape:pageshadow="2"
     inkscape:zoom="1.3361979"
     inkscape:cx="227.88188"
     inkscape:cy="801.98893"
     inkscape:document-units="px"
     inkscape:current-layer="layer1"
     showgrid="false"
     inkscape:window-width="1920"
     inkscape:window-height="1027"
     inkscape:window-x="-8"
     inkscape:window-y="-8"
     inkscape:window-maximized="1" />
  <metadata
     id="metadata7">
    <rdf:RDF>
      <cc:Work
         rdf:about="">
        <dc:format>image/svg+xml</dc:format>
        <dc:type
           rdf:resource="http://purl.org/dc/dcmitype/StillImage" />
      </cc:Work>
    </rdf:RDF>
  </metadata>
  <g
     inkscape:groupmode="layer"
     id="layer5"
     inkscape:label="Layer 5"
     style="display:none">
    <rect
       style="opacity:0.42920042;fill:#aaccff;fill-opacity:1;stroke:none;stroke-width:3;stroke-miterlimit:4;stroke-dasharray:12, 4;stroke-dashoffset:0"
       id="rect4198"
       width="76.203812"
       height="93.137993"
       x="16.14039"
       y="32.607014" />
    <path
       style="opacity:0.25;fill:#aaccff;fill-opacity:1;stroke:none;stroke-width:3;stroke-miterlimit:4;stroke-dasharray:12, 4;stroke-dashoffset:0"
       d="M 50.206844,30.919788 C 47.80563,30.805455 44.842907,30.632673 43.623013,30.535827 l -2.217987,-0.176084 0.905381,-0.905381 0.905381,-0.905381 3.164783,0.28364 c 1.74063,0.156002 6.677301,0.392446 10.970381,0.525432 4.293079,0.132986 10.365571,0.483767 13.494425,0.779514 3.128854,0.295747 5.986497,0.556697 6.350318,0.579888 0.36382,0.02319 -0.350591,0.130982 -1.58758,0.239534 -2.914076,0.255726 -19.767601,0.231044 -25.401271,-0.0372 z"
       id="path4200"
       inkscape:connector-curvature="0" />
  </g>
  <g
     inkscape:groupmode="layer"
     id="layer3"
     inkscape:label="Layer 3"
     style="display:inline">
    <g
       inkscape:groupmode="layer"
       id="layer2"
       inkscape:label="Layer 2">
      <path
         style="fill:none;fill-rule:evenodd;stroke:#666666;stroke-width:8;stroke-linecap:butt;stroke-linejoin:miter;stroke-opacity:1"
         d="m 16.828919,29.122214 c -1.68674,0.80963 0.90338,24.36815 0.90338,24.36815 l -0.7484,24.69693 -0.74838,22.825966 c 3.12347,15.80471 0,22.82596 0,22.82596 52.7927,6.59372 53.65941,4.06783 67.72949,4.11616 1.49678,0 10.85169,-1.49678 10.85169,-1.49678 l -2.24518,-23.20017 -0.3742,-23.574336 -0.37419,-23.94855 c 0.49893,-5.36348 2.24518,-25.81953 3.74195,-23.94855 l -1.49677,-1.87098 c 0,0 -10.22613,-1.18073 -17.03145,-1.40599 -4.62769,-0.15317 -12.91974,-1.3176 -17.5496,-1.25879 -6.74537,0.0857 -13.48482,-0.55225 -20.20659,-1.12258 -4.3783,-0.37149 -11.93901,0.41938 -16.27201,1.14919 -3.41088,0.57449 -6.17974,1.84437 -6.17974,1.84437 z"
         id="path4189"
         inkscape:connector-curvature="0"
         sodipodi:nodetypes="scccccccccccsssss" />
    </g>
    <path
       style="fill:#cccccc;fill-rule:evenodd;stroke:#4d4d4d;stroke-width:4.81229591;stroke-linecap:butt;stroke-linejoin:miter;stroke-opacity:1"
       d="m 32.579478,9.9250329 -4.976999,8.1079451 -1.421997,8.614683 c 0,0 7.110005,2.02698 9.954018,2.02698 2.843994,0 15.642007,1.013503 15.642007,1.013503 L 57.464514,25.634172 56.307095,12.37374 44.666502,10.938523 Z"
       id="path4192"
       inkscape:connector-curvature="0"
       sodipodi:nodetypes="cccsccccc" />
  </g>
  <g
     inkscape:label="Layer 1"
     inkscape:groupmode="layer"
     id="layer1"
     style="display:inline">
    <path
       style="fill:#cccccc;fill-rule:evenodd;stroke:#000000;stroke-width:0.68762124px;stroke-linecap:butt;stroke-linejoin:miter;stroke-opacity:1"
       d="m 11.418582,28.465106 c 7.746835,-0.934396 14.870905,2.993475 22.339805,3.79339 14.125373,1.512819 28.313077,3.201847 42.445645,1.896686 7.597657,-0.701646 14.815987,-3.523417 22.619046,-5.215899 1.941172,-0.421053 1.424422,7.263026 0.279251,9.957642 C 88.19664,43.583021 83.821091,42.647851 68.943594,43.638667 55.640423,44.805933 44.758699,41.195186 31.326947,40.79363 23.368777,40.555698 22.825882,41.270507 10.860079,37.948572 9.0136634,37.435982 9.5523473,28.690193 11.418582,28.465106 Z"
       id="path4144"
       inkscape:connector-curvature="0"
       sodipodi:nodetypes="ssssccsss" />
    <path
       style="display:inline;fill:#cccccc;fill-rule:evenodd;stroke:#000000;stroke-width:0.68762124px;stroke-linecap:butt;stroke-linejoin:miter;stroke-opacity:1"
       d="m 11.418585,50.702557 c 7.746831,-0.934396 14.870901,2.993475 22.339801,3.79339 14.12537,1.512819 28.31308,3.201847 42.44565,1.896686 7.59765,-0.701646 14.81598,-3.523417 22.61904,-5.215899 1.941184,-0.421053 1.424434,7.263026 0.27925,9.957642 -10.90569,4.686096 -15.28123,3.750926 -30.15873,4.741742 -13.30317,1.167266 -24.1849,-2.443481 -37.61665,-2.845037 -7.95817,-0.237932 -8.50106,0.476877 -20.466871,-2.845058 -1.8464096,-0.51259 -1.3077296,-9.258379 0.55851,-9.483466 z"
       id="path4144-2"
       inkscape:connector-curvature="0"
       sodipodi:nodetypes="ssssccsss" />
    <path
       style="display:inline;fill:#cccccc;fill-rule:evenodd;stroke:#000000;stroke-width:0.68762124px;stroke-linecap:butt;stroke-linejoin:miter;stroke-opacity:1"
       d="m 11.418583,72.940006 c 7.746831,-0.934396 14.870901,2.993475 22.339801,3.79339 14.12538,1.512819 28.31308,3.201847 42.44565,1.896686 7.59766,-0.701646 14.81599,-3.523417 22.61904,-5.215899 1.941176,-0.421053 1.424426,7.263026 0.27926,9.957638 -10.90569,4.6861 -15.28124,3.75093 -30.15874,4.74175 -13.30317,1.16726 -24.18489,-2.44348 -37.61665,-2.84504 -7.95817,-0.23793 -8.50106,0.47688 -20.466861,-2.84506 -1.8464198,-0.512589 -1.3077358,-9.258378 0.5585,-9.483465 z"
       id="path4144-3"
       inkscape:connector-curvature="0"
       sodipodi:nodetypes="ssssccsss" />
    <path
       style="display:inline;fill:#cccccc;fill-rule:evenodd;stroke:#000000;stroke-width:0.68762124px;stroke-linecap:butt;stroke-linejoin:miter;stroke-opacity:1"
       d="m 11.418583,95.177455 c 7.746835,-0.93439 14.870903,2.993484 22.339803,3.793394 14.12537,1.512821 28.31308,3.201851 42.44565,1.896691 7.59765,-0.70165 14.81598,-3.523421 22.61904,-5.215905 1.941184,-0.42105 1.424434,7.263035 0.27925,9.957645 -10.90569,4.6861 -15.28123,3.75093 -30.15873,4.74174 -13.30317,1.16727 -24.1849,-2.44348 -37.61665,-2.84504 -7.95817,-0.23793 -8.50106,0.47688 -20.466867,-2.84505 -1.846416,-0.51259 -1.307732,-9.258385 0.558504,-9.483475 z"
       id="path4144-0"
       inkscape:connector-curvature="0"
       sodipodi:nodetypes="ssssccsss" />
    <path
       style="display:inline;fill:#cccccc;fill-rule:evenodd;stroke:#000000;stroke-width:0.68762124px;stroke-linecap:butt;stroke-linejoin:miter;stroke-opacity:1"
       d="m 11.418585,117.41491 c 7.746831,-0.9344 14.870901,2.99347 22.339801,3.79339 14.12537,1.51282 28.31308,3.20185 42.44564,1.89669 7.59766,-0.70165 14.81599,-3.52342 22.61905,-5.2159 1.941184,-0.42106 1.424434,7.26302 0.27925,9.95764 -10.90569,4.68609 -15.28124,3.75092 -30.15873,4.74174 -13.30317,1.16727 -24.1849,-2.44348 -37.61665,-2.84504 -7.95817,-0.23793 -8.50107,0.47688 -20.466871,-2.84505 -1.8464096,-0.51259 -1.3077296,-9.25838 0.55851,-9.48347 z"
       id="path4144-04"
       inkscape:connector-curvature="0"
       sodipodi:nodetypes="ssssccsss" />
  </g>
  <g
     inkscape:groupmode="layer"
     id="layer4"
     inkscape:label="Layer 4">
    <path
       style="fill:#999999;fill-rule:evenodd;stroke:#000000;stroke-width:3.13810658;stroke-linecap:butt;stroke-linejoin:miter;stroke-opacity:1"
       d="m 29.283062,12.260496 c 0.731818,-3.639633 7.9538,-1.937933 11.985711,-2.691048 3.965475,-0.7407142 8.166531,-3.0053998 11.985692,-1.7940386 1.890124,0.5995184 4.233844,2.2491076 3.995244,4.0365826 -0.313277,2.347034 -4.027153,3.208064 -6.49226,4.036582 -4.235437,1.423518 -9.097576,2.333867 -13.483941,1.345514 -3.135057,-0.706401 -8.564861,-2.076985 -7.990446,-4.933592 z"
       id="path4195"
       inkscape:connector-curvature="0"
       sodipodi:nodetypes="sssssss" />
  </g>
</svg>
